<svg xmlns="http://www.w3.org/2000/svg" width="80.8" height="80.801" viewBox="0 0 80.8 80.801">
  <g id="Construction" transform="translate(1.496 1.488)">
    <path id="Path_77889" data-name="Path 77889" d="M1.224,74.437A1.225,1.225,0,0,1,0,73.212V62.342A12.037,12.037,0,0,1,10.189,50.449l11.078-1.721V43.336l-.181-.155A14.919,14.919,0,0,1,15.84,31.826V23.921h2.447v7.905a12.486,12.486,0,0,0,24.972,0V23.921h2.448v7.905A14.924,14.924,0,0,1,40.462,43.18l-.182.155v5.393l8.325,1.293-.376,2.419-8.872-1.378-3.816,3.816a6.8,6.8,0,0,1-9.605,0l-3.806-3.807-11.567,1.8a9.538,9.538,0,0,0-8.116,9.473v9.647H11.4V67.342a1.224,1.224,0,1,1,2.447,0v4.647H50.735v2.448Zm22.49-25.242,3.953,3.953a4.347,4.347,0,0,0,6.144,0l4.022-4.022V45.007l-.737.346a14.91,14.91,0,0,1-12.645,0l-.737-.346Z" transform="translate(-1.096 -4.387)" fill="#fff" stroke="#fff" stroke-width="0.8"/>
    <path id="Path_77890" data-name="Path 77890" d="M35.132,39.377a4.66,4.66,0,0,1-3.318-1.372,1.224,1.224,0,0,1,1.732-1.731,2.246,2.246,0,0,0,3.173,0,1.224,1.224,0,0,1,1.73,1.732,4.658,4.658,0,0,1-3.317,1.372" transform="translate(-5.435 -6.042)" fill="#fff" stroke="#fff" stroke-width="0.8"/>
    <path id="Path_77891" data-name="Path 77891" d="M13.1,21.329a1.224,1.224,0,0,1,0-2.448h3.164v-.517A17.175,17.175,0,0,1,27.193,2.424l.338-.125V1.224A1.226,1.226,0,0,1,28.755,0h7.314a1.226,1.226,0,0,1,1.224,1.224V2.3l.338.125a17.162,17.162,0,0,1,10.926,15.9v.517l.517.043H51.72a1.224,1.224,0,1,1,0,2.448ZM26.786,5.255a14.8,14.8,0,0,0-8.072,13.066v.517l.517.043H46.109v-.517A14.818,14.818,0,0,0,38.038,5.255l-.745-.366v2.94a1.224,1.224,0,1,1-2.447,0V2.448H29.978V7.829a1.224,1.224,0,1,1-2.447,0V4.891Z" transform="translate(-2.734 -1.088)" fill="#fff" stroke="#fff" stroke-width="0.8"/>
    <path id="Path_77892" data-name="Path 77892" d="M71.484,86.566a1.154,1.154,0,0,1-.218-.021A19.472,19.472,0,0,1,55.337,67.4V54.579a1.225,1.225,0,0,1,1.224-1.224,20.958,20.958,0,0,0,14.1-5.437,1.22,1.22,0,0,1,1.643,0,20.959,20.959,0,0,0,14.1,5.437,1.225,1.225,0,0,1,1.223,1.224V67.4A19.471,19.471,0,0,1,71.708,86.545a1.172,1.172,0,0,1-.223.022M71.162,50.7a23.318,23.318,0,0,1-12.9,5.039l-.48.034V67.4a17.082,17.082,0,0,0,13.6,16.674l.1.021.1-.021A17.082,17.082,0,0,0,85.185,67.4V55.777l-.48-.034a23.323,23.323,0,0,1-12.9-5.039l-.322-.256Z" transform="translate(-8.728 -7.653)" fill="#fff" stroke="#fff" stroke-width="0.8"/>
    <path id="Path_77893" data-name="Path 77893" d="M71.92,74.5a1.218,1.218,0,0,1-.866-.359l-4.213-4.213a1.224,1.224,0,1,1,1.73-1.732l3.348,3.348,5.914-5.915a1.225,1.225,0,0,1,1.732,1.732L72.786,74.14a1.219,1.219,0,0,1-.866.359" transform="translate(-10.266 -10.091)" fill="#fff" stroke="#fff" stroke-width="0.8"/>
  </g>
</svg>
