<svg id="support" xmlns="http://www.w3.org/2000/svg" width="45.99" height="47" viewBox="0 0 45.99 47">
  <path id="Path_78149" data-name="Path 78149" d="M52.04,57.212a22.49,22.49,0,1,0-37.094,0Z" transform="translate(-9.991 -19.982)" fill="#ff4155"/>
  <path id="Path_78150" data-name="Path 78150" d="M161.008,18.533A9.477,9.477,0,0,0,151.542,28c.012.182-.034.28.058.346a.466.466,0,0,1,.194.377v.536c0,.487.576.732.653.494a.924.924,0,0,1,.953-.648h.02a.923.923,0,0,1,.517.16.139.139,0,0,0,.21-.073,2.126,2.126,0,0,0,.094-.792c-.1-1.332-.025-3.672,1.559-4.384A5.933,5.933,0,0,1,159.573,24a3.863,3.863,0,0,0,2.622.118,5.966,5.966,0,0,1,4.154-.1c1.581.712,1.656,3.046,1.559,4.374a2.158,2.158,0,0,0,.074.732.139.139,0,0,0,.2.086,1,1,0,0,1,1.392.544.139.139,0,0,0,.156.094.6.6,0,0,0,.5-.588v-.536a.467.467,0,0,1,.194-.377c.091-.066.046-.166.058-.346A9.477,9.477,0,0,0,161.008,18.533Z" transform="translate(-137.63 -16.832)" fill="#41416b"/>
  <path id="Path_78151" data-name="Path 78151" d="M160.745,18.866a.255.255,0,0,0,.087-.309,9.477,9.477,0,0,0-9.291,9.464c.012.182-.034.28.058.346a.466.466,0,0,1,.194.377v.536c0,.487.576.732.653.494a.924.924,0,0,1,.953-.648h.02a.923.923,0,0,1,.517.16.139.139,0,0,0,.21-.073,2.126,2.126,0,0,0,.094-.792c-.1-1.332-.025-3.672,1.559-4.384a5.871,5.871,0,0,1,3.744-.022l.062-.129A3.717,3.717,0,0,1,160.745,18.866Z" transform="translate(-137.63 -16.854)" fill="#35355e"/>
  <path id="Path_78152" data-name="Path 78152" d="M53.28,330.786a22.494,22.494,0,0,0,37.221,0,7.189,7.189,0,0,0-3.437-4.458h0c-.125-.06-.292-.148-.582-.261-5.969-2.654-6.657-2.535-7.262-2.737a.236.236,0,0,1,.047.062c-.021.179.093.15-.327,1.23a13.813,13.813,0,0,1-4.292,5.513.542.542,0,0,1-.639.025c-.317-.212-.874,1.786-.844,2.353.011.34,0-.065.005,4.557a.334.334,0,0,1-.336.33H70.949a.334.334,0,0,1-.336-.33c0-4.621-.005-4.217.005-4.557a.089.089,0,0,0,0-.012c-.078-1-.557-2.532-.844-2.341a.542.542,0,0,1-.639-.025,13.813,13.813,0,0,1-4.292-5.513c-.421-1.081-.306-1.051-.327-1.23a.238.238,0,0,1,.047-.062c-.605.2-1.293.083-7.262,2.737-.29.114-.457.2-.583.261h0A7.191,7.191,0,0,0,53.28,330.786Z" transform="translate(-48.389 -293.644)" fill="#ffdd40"/>
  <path id="Path_78153" data-name="Path 78153" d="M64.518,323.386a.235.235,0,0,1,.047-.062c-.605.2-1.293.083-7.262,2.737-.29.114-.457.2-.583.261h0a7.192,7.192,0,0,0-3.439,4.463,22.616,22.616,0,0,0,5.552,5.681l.725-2.392a3.792,3.792,0,0,1,2-2.324L66.92,329.2v-1.2a12.5,12.5,0,0,1-2.075-3.377C64.425,323.536,64.54,323.565,64.518,323.386Z" transform="translate(-48.391 -293.644)" fill="#ffc839"/>
  <path id="Path_78154" data-name="Path 78154" d="M195.812,276.949l.1.551,0,.013c.029.127.062.254.1.379l.006.019c.012.042.025.084.038.125l.008.025c.014.044.028.088.044.134l.005.015a7.782,7.782,0,0,0,2.607,3.6,9.8,9.8,0,0,0,1.311.867.949.949,0,0,1,.441.509.122.122,0,0,0,.023.039,8.335,8.335,0,0,1,.679.879.127.127,0,0,0,.2,0,8.285,8.285,0,0,1,.681-.881.12.12,0,0,0,.023-.039.951.951,0,0,1,.441-.508,7.762,7.762,0,0,0,4.223-5.752,8.556,8.556,0,0,1-.572-2.99,10.467,10.467,0,0,1-1.51,1.443,5.533,5.533,0,0,1-6.775,0,10.469,10.469,0,0,1-1.51-1.443,8.556,8.556,0,0,1-.572,2.99Z" transform="translate(-177.834 -248.792)" fill="#fca870"/>
  <path id="Path_78155" data-name="Path 78155" d="M197.894,275.381a10.469,10.469,0,0,1-1.51-1.443,8.557,8.557,0,0,1-.572,2.99l0,.02.1.551,0,.013c.029.127.062.254.1.379l.006.019c.012.042.025.084.038.125l.008.025c.014.044.028.088.044.134l.005.015a7.783,7.783,0,0,0,2.607,3.6c.127.1.259.2.393.291a14.631,14.631,0,0,0,1.945-5.569A5.522,5.522,0,0,1,197.894,275.381Z" transform="translate(-177.837 -248.791)" fill="#f9955f"/>
  <path id="Path_78156" data-name="Path 78156" d="M184.745,79.844a3.841,3.841,0,0,0-.343-.69,1.989,1.989,0,0,1-.3-1.206c.1-1.364.017-3.764-1.641-4.51a6.1,6.1,0,0,0-4.255.1,3.432,3.432,0,0,1-2.154,0,6.1,6.1,0,0,0-4.255-.1c-.713.321-1.874,1.335-1.64,4.521a1.97,1.97,0,0,1-.3,1.2,3.825,3.825,0,0,0-.334.668,4.607,4.607,0,0,0-.26,2.293l.389,2.828a10.505,10.505,0,0,0,4.052,8.335,5.593,5.593,0,0,0,6.85,0,10.5,10.5,0,0,0,4.051-8.327L185,82.116A4.609,4.609,0,0,0,184.745,79.844Z" transform="translate(-153.687 -66.38)" fill="#f9bd91"/>
  <g id="Group_70331" data-name="Group 70331" transform="translate(15.534 6.709)">
    <path id="Path_78157" data-name="Path 78157" d="M176.979,93.276a12.181,12.181,0,0,1-2.882-8.335l-.277-2.828a6.363,6.363,0,0,1,.185-2.293,4.592,4.592,0,0,1,.238-.668,2.616,2.616,0,0,0,.213-1.2c-.166-3.186.659-4.2,1.167-4.521l.041-.025a5.767,5.767,0,0,0-3.863.025c-.713.321-1.874,1.335-1.64,4.521a1.97,1.97,0,0,1-.3,1.2,3.819,3.819,0,0,0-.334.668,4.607,4.607,0,0,0-.26,2.293l.389,2.828a10.505,10.505,0,0,0,4.052,8.335,5.58,5.58,0,0,0,4.759,1.008A3.656,3.656,0,0,1,176.979,93.276Z" transform="translate(-169.223 -73.087)" fill="#fca870"/>
  </g>
  <g id="Group_70332" data-name="Group 70332" transform="translate(20.504 33.805)">
    <path id="Path_78158" data-name="Path 78158" d="M226.385,369.833a7.387,7.387,0,0,0-1.326-1.573l-1.7,2.731c1.225.789,1.444,2.715,1.483,3.336A8.579,8.579,0,0,1,226.385,369.833Z" transform="translate(-223.359 -368.26)" fill="#ff9100"/>
  </g>
  <path id="Path_78159" data-name="Path 78159" d="M242.293,378.306v-3.782s.021-2.586,1.491-3.533l-1.7-2.731a8.495,8.495,0,0,0-2.71,6.264v3.782h2.919Z" transform="translate(-217.4 -334.455)" fill="#ffb332"/>
  <path id="Path_78160" data-name="Path 78160" d="M173.039,309.069a7.632,7.632,0,0,1-4.171-5.738.249.249,0,0,0-.4-.17l-2.3,1.683a.375.375,0,0,0-.144.392c.913,3.636,3.85,6.29,5.144,7.313a.72.72,0,0,0,1.044-.163l1.188-1.765A1.068,1.068,0,0,0,173.039,309.069Z" transform="translate(-150.782 -275.288)" fill="#ffc839"/>
  <g id="Group_70333" data-name="Group 70333" transform="translate(0 0)">
    <path id="Path_78161" data-name="Path 78161" d="M171.743,308.214a7.367,7.367,0,0,1-2.876-4.882.249.249,0,0,0-.4-.17l-2.3,1.683a.375.375,0,0,0-.144.392,13.017,13.017,0,0,0,3.278,5.6C170.327,307.5,171.461,308.019,171.743,308.214Z" transform="translate(-150.781 -275.289)" fill="#ffb332"/>
    <path id="Path_78162" data-name="Path 78162" fill="#ffb332"/>
  </g>
  <path id="Path_78163" data-name="Path 78163" d="M269.622,304.844l-2.3-1.683a.249.249,0,0,0-.4.17,7.632,7.632,0,0,1-4.171,5.738,1.068,1.068,0,0,0-.37,1.552l1.188,1.765a.72.72,0,0,0,1.044.163c1.294-1.023,4.231-3.678,5.144-7.313A.375.375,0,0,0,269.622,304.844Z" transform="translate(-238.13 -275.288)" fill="#ffc839"/>
  <path id="Path_78164" data-name="Path 78164" d="M251.68,418.811a.573.573,0,1,1-.573-.573A.573.573,0,0,1,251.68,418.811Z" transform="translate(-227.535 -379.845)" fill="#ffc839"/>
  <path id="Path_78165" data-name="Path 78165" d="M250.288,449.8a.573.573,0,1,1-.573-.573A.574.574,0,0,1,250.288,449.8Z" transform="translate(-226.271 -407.986)" fill="#ffc839"/>
  <path id="Path_78166" data-name="Path 78166" d="M239.373,476.3v1.071a.489.489,0,0,0,.492.486H241.8a.489.489,0,0,0,.492-.486V476.3Z" transform="translate(-217.399 -432.578)" fill="#ff9100"/>
  <path id="Path_78167" data-name="Path 78167" d="M146.121,0a10.972,10.972,0,0,0-10.972,10.972v1.3h1.644V11.168a9.328,9.328,0,0,1,18.656,0v1.109h1.644v-1.3A10.972,10.972,0,0,0,146.121,0Z" transform="translate(-122.743 0)" fill="#e3e7fc"/>
  <path id="Path_78168" data-name="Path 78168" d="M135.149,10.972v1.3h1.644V11.168a9.328,9.328,0,0,1,9.17-9.326.263.263,0,0,0-.058-.208c-.248-.3-.53-.887.217-1.633a10.972,10.972,0,0,0-10.972,10.972Z" transform="translate(-122.743)" fill="#c8cefc"/>
  <path id="Path_78169" data-name="Path 78169" d="M349.942,122.957h-.863a.6.6,0,0,0-.6.6v.536a.462.462,0,0,1-.508.457h-.005a1.012,1.012,0,0,1,.052.32v7.193a1.01,1.01,0,0,1-.052.32,4.282,4.282,0,0,0,1.627-.48,1.8,1.8,0,0,0,.956-1.593v-6.754A.6.6,0,0,0,349.942,122.957Z" transform="translate(-316.02 -111.67)" fill="#c8cefc"/>
  <g id="Group_70334" data-name="Group 70334" transform="translate(31.942 14.169)">
    <path id="Path_78170" data-name="Path 78170" d="M349.59,155.948a4.28,4.28,0,0,1-1.575.474v4.161a1.01,1.01,0,0,1-.052.32,4.28,4.28,0,0,0,1.627-.48,1.8,1.8,0,0,0,.956-1.593v-4.475A1.8,1.8,0,0,1,349.59,155.948Z" transform="translate(-347.963 -154.355)" fill="#b8c0f4"/>
  </g>
  <path id="Path_78171" data-name="Path 78171" d="M326.9,141.528h-.083a1.072,1.072,0,0,1-1.069-1.069v-7.193a1.072,1.072,0,0,1,1.069-1.069h.083a1.072,1.072,0,0,1,1.069,1.069v7.193A1.072,1.072,0,0,1,326.9,141.528Z" transform="translate(-295.844 -120.062)" fill="#e3e7fc"/>
  <path id="Path_78172" data-name="Path 78172" d="M133.852,122.957h.863a.6.6,0,0,1,.6.6v.536a.462.462,0,0,0,.508.457h.005a1.012,1.012,0,0,0-.052.32v7.193a1.012,1.012,0,0,0,.052.32,4.282,4.282,0,0,1-1.627-.48,1.8,1.8,0,0,1-.956-1.593v-6.754A.6.6,0,0,1,133.852,122.957Z" transform="translate(-121.016 -111.67)" fill="#b8c0f4"/>
  <g id="Group_70335" data-name="Group 70335" transform="translate(12.232 14.077)">
    <path id="Path_78173" data-name="Path 78173" d="M135.779,155.422a4.279,4.279,0,0,1-1.575-.474,1.8,1.8,0,0,1-.956-1.593v4.567a1.8,1.8,0,0,0,.956,1.593,4.283,4.283,0,0,0,1.627.48,1.011,1.011,0,0,1-.052-.32v-4.253Z" transform="translate(-133.248 -153.355)" fill="#a4b0ea"/>
  </g>
  <path id="Path_78174" data-name="Path 78174" d="M160.476,141.528h.084a1.072,1.072,0,0,0,1.069-1.069v-7.193a1.072,1.072,0,0,0-1.069-1.069h-.084a1.072,1.072,0,0,0-1.069,1.069v7.193A1.072,1.072,0,0,0,160.476,141.528Z" transform="translate(-144.774 -120.062)" fill="#e3e7fc"/>
  <path id="Path_78175" data-name="Path 78175" d="M326.9,173.811h-.084a1.072,1.072,0,0,1-1.069-1.069v4.54a1.072,1.072,0,0,0,1.069,1.069h.084a1.072,1.072,0,0,0,1.069-1.069v-4.54A1.072,1.072,0,0,1,326.9,173.811Z" transform="translate(-295.844 -156.885)" fill="#c8cefc"/>
  <path id="Path_78176" data-name="Path 78176" d="M160.56,173.811h-.084a1.072,1.072,0,0,1-1.069-1.069v4.54a1.072,1.072,0,0,0,1.069,1.069h.084a1.072,1.072,0,0,0,1.069-1.069v-4.54A1.072,1.072,0,0,1,160.56,173.811Z" transform="translate(-144.774 -156.885)" fill="#c8cefc"/>
  <g id="Group_70336" data-name="Group 70336" transform="translate(27.35 19.662)">
    <path id="Path_78177" data-name="Path 78177" d="M297.971,222.8a.692.692,0,0,1,.458-.865,27.373,27.373,0,0,0,3.419-1.327,1.178,1.178,0,0,0,.622-.7l1.091-3.378a1.673,1.673,0,0,0-.261-1.338.692.692,0,1,1,1.242-.612,2.922,2.922,0,0,1,.337,2.376l-1.091,3.378a2.567,2.567,0,0,1-1.355,1.534,28.83,28.83,0,0,1-3.6,1.4A.692.692,0,0,1,297.971,222.8Z" transform="translate(-297.94 -214.188)" fill="#e3e7fc"/>
  </g>
  <g id="Group_70337" data-name="Group 70337" transform="translate(22.892 27.054)">
    <path id="Path_78178" data-name="Path 78178" d="M250.622,297.667a1.246,1.246,0,1,1,0-2.492,11.2,11.2,0,0,0,2.78-.419,1.246,1.246,0,1,1,.634,2.41,13.646,13.646,0,0,1-3.414.5Z" transform="translate(-249.376 -294.714)" fill="#ff4155"/>
  </g>
  <path id="Path_78179" data-name="Path 78179" d="M251.879,298.84a1.4,1.4,0,0,1,.444-1.023,9.4,9.4,0,0,1-1.7.176,1.246,1.246,0,1,0,0,2.492,12.227,12.227,0,0,0,2.393-.264A1.407,1.407,0,0,1,251.879,298.84Z" transform="translate(-226.484 -270.478)" fill="#e80054"/>
</svg>
