<svg xmlns="http://www.w3.org/2000/svg" width="80.8" height="80.8" viewBox="0 0 80.8 80.8">
  <g id="E-Governance" transform="translate(-0.334 1.163)">
    <path id="Path_77877" data-name="Path 77877" d="M4.256,80A4.267,4.267,0,0,1,0,75.744V69.788a4.267,4.267,0,0,1,4.257-4.256h4.68v-33.2H4.256A4.268,4.268,0,0,1,0,28.073V23.9a4.244,4.244,0,0,1,2.233-3.746L39.4.152a1.273,1.273,0,0,1,1.208,0L77.768,20.167A4.234,4.234,0,0,1,80,23.911v4.174a4.268,4.268,0,0,1-4.256,4.256H71.066V65.532h4.678A4.267,4.267,0,0,1,80,69.79v5.957A4.268,4.268,0,0,1,75.744,80H4.256Zm-1.7-2.551H77.446l0-9.363H2.554ZM56.175,65.532H68.508l.009-33.191H56.175Zm-14.9,0H53.619V32.34H41.277Zm-14.893,0H38.725V32.34H26.384Zm-14.9,0H23.83V32.34H11.489ZM2.554,22.888v6.889H77.449V22.888L40,2.725Z" transform="translate(0.734 -0.763)" fill="#fff" stroke="#fff" stroke-width="0.8"/>
  </g>
</svg>
