<svg xmlns="http://www.w3.org/2000/svg" width="76.5" height="68.056" viewBox="0 0 76.5 68.056">
  <g id="Health_Care" data-name="Health Care" transform="translate(0.249 0.25)">
    <path id="Path_77885" data-name="Path 77885" d="M53.736,63.34a1.333,1.333,0,0,1-.749-2.427c5.938-4.108,10.083-7.189,13.7-10.775a1.314,1.314,0,0,1,1.867.013,1.34,1.34,0,0,1-.014,1.882c-3.755,3.726-8,6.882-14.055,11.073a1.308,1.308,0,0,1-.746.234" transform="translate(-9.673 -8.873)" fill="#fff" stroke="#fff" stroke-width="0.5"/>
    <path id="Path_77886" data-name="Path 77886" d="M68.45,26.328a17.512,17.512,0,0,0,1.272-6.609A16.9,16.9,0,0,0,40.057,8.49a1.315,1.315,0,0,1-1.987,0A16.9,16.9,0,0,0,8.4,19.719a17.735,17.735,0,0,0,.328,3.351,1.332,1.332,0,0,1-.2,1,1.312,1.312,0,0,1-.843.562,1.345,1.345,0,0,1-.254.025,1.326,1.326,0,0,1-1.295-1.078,20.469,20.469,0,0,1-.375-3.858A19.667,19.667,0,0,1,25.333,0,19.4,19.4,0,0,1,38.838,5.455l.225.216.225-.216A19.4,19.4,0,0,1,52.794,0a19.667,19.667,0,0,1,19.57,19.719,14.593,14.593,0,0,1-1.226,6.369c-.121.307-.245.622-.369.956Z" transform="translate(-1.063 0)" fill="#fff" stroke="#fff" stroke-width="0.5"/>
    <path id="Path_77887" data-name="Path 77887" d="M39.359,72.329a4.9,4.9,0,0,1-2.465-.667l-4.416-2.569a16.025,16.025,0,0,1-5.809-5.83l-.046-.079L8.785,53.335A17.057,17.057,0,0,1,0,38.391,14.453,14.453,0,0,1,5.576,27.035a1.319,1.319,0,0,1,2.088.78A18.35,18.35,0,0,0,15.91,39.44L33.593,50.264l.161-.08a20.255,20.255,0,0,1,5.423-1.819,4.859,4.859,0,0,1,.807-.068,4.675,4.675,0,0,1,3.893,2.064,4.771,4.771,0,0,1,.21,5.116l-.391.683,2.25,1.309a4.994,4.994,0,0,1,1.494,7.272l-4.115,5.58a4.947,4.947,0,0,1-3.965,2.008M5.3,30.966a11.863,11.863,0,0,0-2.661,7.42A14.394,14.394,0,0,0,10.055,51L28.226,61.033a1.321,1.321,0,0,1,.527.533A13.347,13.347,0,0,0,33.8,66.789l4.416,2.569a2.283,2.283,0,0,0,2.989-.624l4.115-5.58a2.322,2.322,0,0,0-.695-3.381L41.23,57.8a1.335,1.335,0,0,1-.484-1.818L41.8,54.147a2.127,2.127,0,0,0-1.817-3.188,2.273,2.273,0,0,0-.369.031,17.713,17.713,0,0,0-5.388,1.953,1.316,1.316,0,0,1-1.356-.01L14.544,41.717A21.188,21.188,0,0,1,5.862,31.061l-.2-.537Z" transform="translate(0 -4.774)" fill="#fff" stroke="#fff" stroke-width="0.5"/>
    <path id="Path_77888" data-name="Path 77888" d="M71.633,48.5a10.758,10.758,0,0,1-5.6-1.629L40.182,31.145h-.09a15.873,15.873,0,0,1-7.919-2.153l-4.416-2.569a4.99,4.99,0,0,1-2.063-6.28l2.738-6.381a4.953,4.953,0,0,1,2.98-2.748,4.9,4.9,0,0,1,4.019.415l2.25,1.308.391-.682a4.681,4.681,0,0,1,4.1-2.393c.134,0,.269,0,.405.016a4.728,4.728,0,0,1,4.065,3.1A20.671,20.671,0,0,1,47.787,18.4l.012.185L70.807,30.677,72.737,26a1.314,1.314,0,0,1,1.218-.818,1.315,1.315,0,0,1,.856.317,16.785,16.785,0,0,1,5.856,12.764c0,4.115-1.692,7.433-4.642,9.1A8.907,8.907,0,0,1,71.633,48.5M40.541,28.479a1.308,1.308,0,0,1,.682.191L67.4,44.591a8.138,8.138,0,0,0,4.231,1.248,6.283,6.283,0,0,0,3.1-.786c2.125-1.205,3.3-3.615,3.3-6.786a14.169,14.169,0,0,0-3.246-9.03l-.345-.416-1.743,4.218a1.327,1.327,0,0,1-.769.739,1.3,1.3,0,0,1-.45.081,1.318,1.318,0,0,1-.611-.151L45.892,20.585a1.327,1.327,0,0,1-.71-1.195,18.094,18.094,0,0,0-1.016-5.676,2.077,2.077,0,0,0-1.809-1.383c-.063-.006-.126-.008-.187-.008a2.071,2.071,0,0,0-1.809,1.062L39.308,15.22a1.323,1.323,0,0,1-1.145.666,1.306,1.306,0,0,1-.659-.179l-3.393-1.974a2.281,2.281,0,0,0-1.143-.312,2.318,2.318,0,0,0-.725.118,2.277,2.277,0,0,0-1.385,1.278L28.12,21.2a2.319,2.319,0,0,0,.958,2.919l4.416,2.569a13.242,13.242,0,0,0,6.649,1.8c.119,0,.239,0,.358,0Z" transform="translate(-4.667 -1.723)" fill="#fff" stroke="#fff" stroke-width="0.5"/>
  </g>
</svg>
