<svg xmlns="http://www.w3.org/2000/svg" width="80.302" height="80.299" viewBox="0 0 80.302 80.299">
  <g id="HR" transform="translate(0.152 0.15)">
    <path id="Path_78119" data-name="Path 78119" d="M41.333,80H76a4,4,0,0,0,4-4V52a4,4,0,0,0-4-4H52.11a14.416,14.416,0,0,0-4.244-3.615,7.885,7.885,0,0,0,2.611-2.9,2.436,2.436,0,0,0-.489-2.589c-1.272-1.365-4.648-4.985-4.648-15.828v-5.72A17.579,17.579,0,0,0,28,0,17.579,17.579,0,0,0,10.655,17.347v5.72c0,10.843-3.377,14.464-4.692,15.875a2.416,2.416,0,0,0-.452,2.533,7.919,7.919,0,0,0,2.608,2.907,13.492,13.492,0,0,0-7,10.433L.013,68.788a4.205,4.205,0,0,0,4.2,4.545H37.333V76A4,4,0,0,0,41.333,80ZM18.577,51.518a1.333,1.333,0,0,0-.923-.813l-3.813-.947-.083-.164,1.513-4.54L18.5,44.6l8.167,20.984v2.732L16.385,55.973l-.009-.133,2.067-3.093a1.341,1.341,0,0,0,.135-1.228ZM29,39.874a4.057,4.057,0,0,1-2.007,0c-10.073-2.6-10.235-12.953-10.237-13.389a1.333,1.333,0,0,0-1.333-1.333,2.08,2.08,0,0,1-2.091-2.227A2.225,2.225,0,0,1,15.6,20.964c7.095-.028,12.217-1.852,15.663-5.575a.421.421,0,0,1,.317-.133.681.681,0,0,1,.076,0,.5.5,0,0,1,.38.267,9.543,9.543,0,0,0,8.445,5.437,2.188,2.188,0,0,1,2.185,1.927,2.1,2.1,0,0,1-2.088,2.267,1.333,1.333,0,0,0-1.333,1.333C39.236,26.92,39.075,37.276,29,39.874Zm-5.032,1.773a17.4,17.4,0,0,0,2.359.808,6.7,6.7,0,0,0,3.34,0,17.259,17.259,0,0,0,2.361-.809,2.872,2.872,0,0,0,2.439,2.525l.319.045L33.315,48H22.685l-1.467-3.783.317-.044a2.872,2.872,0,0,0,2.433-2.525ZM28,61.657,23.723,50.666h8.555Zm1.333,3.927L37.5,44.6l3.228.455L41.708,48h-.375a4,4,0,0,0-4,4v6.713l-8,9.6ZM77.333,52V76A1.333,1.333,0,0,1,76,77.333H41.333A1.333,1.333,0,0,1,40,76V52a1.333,1.333,0,0,1,1.333-1.333H76A1.333,1.333,0,0,1,77.333,52ZM44.52,48l-.82-2.46A11.853,11.853,0,0,1,48.428,48Zm3.423-7.395A7.38,7.38,0,0,1,44.8,43.09a13.9,13.9,0,0,0-1.907-.424l-8.055-1.135a.2.2,0,0,1-.172-.2V40.257c5.6-3.719,6.872-10.016,7.156-12.608a4.76,4.76,0,0,0,1.033-.428C43.607,35.706,46.577,39.133,47.943,40.605ZM28,2.667a14.876,14.876,0,0,1,14.679,14.68v1.5A4.885,4.885,0,0,0,40.5,18.3a6.885,6.885,0,0,1-6.075-3.949,3.173,3.173,0,0,0-2.391-1.733,3.124,3.124,0,0,0-2.732.961c-2.915,3.151-7.4,4.693-13.719,4.719a5.067,5.067,0,0,0-2.267.565V17.347A14.876,14.876,0,0,1,28,2.667ZM8.057,40.605c1.333-1.439,4.331-4.853,5.085-13.38a4.753,4.753,0,0,0,1.031.424c.285,2.593,1.561,8.891,7.159,12.609v1.075a.2.2,0,0,1-.173.2L13.1,42.666a13.827,13.827,0,0,0-1.909.42A7.407,7.407,0,0,1,8.057,40.605ZM3.076,70.172A1.527,1.527,0,0,1,2.676,69L3.783,55.025a11.113,11.113,0,0,1,8.519-9.48l-1.067,3.212a2.812,2.812,0,0,0,.2,2.212A2.843,2.843,0,0,0,13.2,52.348l1.972.489-1.008,1.509a2.785,2.785,0,0,0,.172,3.333L25.155,70.666H4.209a1.525,1.525,0,0,1-1.133-.495Zm27.769.495,6.488-7.788v7.788Z" transform="translate(0 0)" fill="#fff" stroke="#fff" stroke-width="0.3"/>
    <path id="Path_78120" data-name="Path 78120" d="M24.063,24.549a3.356,3.356,0,0,1-4.056,0,1.333,1.333,0,0,0-1.559,2.164,6.008,6.008,0,0,0,7.173,0,1.333,1.333,0,0,0-1.559-2.164Z" transform="translate(5.965 8.099)" fill="#fff" stroke="#fff" stroke-width="0.3"/>
    <path id="Path_78121" data-name="Path 78121" d="M35.333,59.667a1.333,1.333,0,0,0,1.333-1.333V51.667H42v6.667a1.333,1.333,0,0,0,2.667,0v-16a1.333,1.333,0,1,0-2.667,0V49H36.667V42.333a1.333,1.333,0,1,0-2.667,0v16A1.333,1.333,0,0,0,35.333,59.667Z" transform="translate(11.334 13.666)" fill="#fff" stroke="#fff" stroke-width="0.3"/>
    <path id="Path_78122" data-name="Path 78122" d="M47.333,59.667a1.333,1.333,0,0,0,1.333-1.333V51.667h2.667A2.667,2.667,0,0,1,54,54.333v4a1.333,1.333,0,0,0,2.667,0v-4a5.3,5.3,0,0,0-1.843-4A5.311,5.311,0,0,0,51.333,41h-4A1.333,1.333,0,0,0,46,42.333v16A1.333,1.333,0,0,0,47.333,59.667Zm1.333-16h2.667a2.667,2.667,0,1,1,0,5.333H48.667Z" transform="translate(15.333 13.666)" fill="#fff" stroke="#fff" stroke-width="0.3"/>
  </g>
</svg>
