<svg xmlns="http://www.w3.org/2000/svg" width="79.999" height="80" viewBox="0 0 79.999 80">
  <g id="Manufacturing" transform="translate(4.774 4.753)">
    <path id="Path_77903" data-name="Path 77903" d="M73.594,62.318h.654V49.539a1.294,1.294,0,0,0-1.292-1.3H59.323a1.293,1.293,0,0,0-1.29,1.3v12.4H55.054v-12.4a1.293,1.293,0,0,0-1.29-1.3H40.13a1.293,1.293,0,0,0-1.29,1.3v12.4H33.205v-.9a3.489,3.489,0,0,0-3.477-3.492h-.9L25.709,45.7l.129-.338a17.5,17.5,0,0,0,3.884-1.617l2.489,1.111a1.287,1.287,0,0,0,1.436-.268L37.3,40.921a1.3,1.3,0,0,0,.266-1.442l-1.106-2.5a17.621,17.621,0,0,0,1.609-3.9l2.541-.983a1.3,1.3,0,0,0,.828-1.209V25.7a1.3,1.3,0,0,0-.828-1.209l-2.54-.982a17.5,17.5,0,0,0-.815-2.295l10.381-8.734,10.522,9.26a5.3,5.3,0,0,0,1.33,3.3,10.216,10.216,0,0,0-1.13,18.219,1.286,1.286,0,0,0,1.292,0,1.3,1.3,0,0,0,.645-1.123V35.055l3.055-1.771L66.4,35.055v7.189a1.3,1.3,0,0,0,.634,1.115,1.283,1.283,0,0,0,1.277.021,10.216,10.216,0,0,0-.922-18.336,5.312,5.312,0,0,0-3.757-8.828L54.041,5.875a6.007,6.007,0,0,0-11.1-3.053l-15.2,9.063a17.256,17.256,0,0,0-1.9-.657L24.86,8.677a1.29,1.29,0,0,0-1.205-.831H18.494a1.288,1.288,0,0,0-1.2.831l-.979,2.551a17.5,17.5,0,0,0-3.883,1.617l-2.49-1.111A1.289,1.289,0,0,0,8.5,12l-3.65,3.666a1.3,1.3,0,0,0-.266,1.442l1.106,2.5a17.6,17.6,0,0,0-1.61,3.9l-2.541.982A1.3,1.3,0,0,0,.714,25.7v5.184A1.3,1.3,0,0,0,1.541,32.1l2.54.982a17.661,17.661,0,0,0,1.609,3.9l-1.106,2.5a1.3,1.3,0,0,0,.266,1.442L8.5,44.587a1.292,1.292,0,0,0,.459.295l.755,12.662H9.23a3.489,3.489,0,0,0-3.477,3.492v1.509A9.036,9.036,0,0,0,8.994,80H71.006a9.037,9.037,0,0,0,2.588-17.682ZM65.148,50.835h1.985V53.83H65.148Zm-4.535,0h1.953v4.29a1.294,1.294,0,0,0,1.292,1.3h4.564a1.293,1.293,0,0,0,1.29-1.3v-4.29h1.953V61.963c-.218-.016-.437-.027-.66-.027H60.613Zm-14.657,0H47.94V53.83H45.956Zm-4.535,0h1.954v4.29a1.293,1.293,0,0,0,1.289,1.3H49.23a1.293,1.293,0,0,0,1.29-1.3v-4.29h1.954v11.1H41.42ZM37.3,15.669,33.647,12a1.3,1.3,0,0,0-.518-.316l8.893-5.3a6.051,6.051,0,0,0,3.018,4.9l-7.8,6.564.326-.738a1.3,1.3,0,0,0-.266-1.442M71.011,34.434a7.625,7.625,0,0,1-2.028,5.179V34.306a1.3,1.3,0,0,0-.644-1.122l-4.346-2.52a1.286,1.286,0,0,0-1.29,0l-4.345,2.52a1.3,1.3,0,0,0-.644,1.122v5.1a7.585,7.585,0,1,1,13.3-4.97ZM63.438,18.8a2.718,2.718,0,1,1-2.706,2.717A2.714,2.714,0,0,1,63.438,18.8m-4.6.1-8.347-7.347a6.064,6.064,0,0,0,2.831-2.647l7.45,8.03A5.333,5.333,0,0,0,58.842,18.9M48.027,2.592a3.451,3.451,0,1,1-3.435,3.451,3.448,3.448,0,0,1,3.435-3.451M7.3,39.718l1.015-2.3a1.3,1.3,0,0,0-.081-1.206,15.064,15.064,0,0,1-1.82-4.408,1.293,1.293,0,0,0-.791-.909L3.294,30v-3.4l2.334-.9a1.294,1.294,0,0,0,.791-.909,15.037,15.037,0,0,1,1.82-4.408,1.3,1.3,0,0,0,.08-1.205L7.3,16.872l2.4-2.408,2.288,1.021a1.288,1.288,0,0,0,1.2-.081,14.939,14.939,0,0,1,4.388-1.827,1.29,1.29,0,0,0,.9-.795l.9-2.344h3.389l.9,2.344a1.292,1.292,0,0,0,.906.795A14.943,14.943,0,0,1,28.961,15.4a1.285,1.285,0,0,0,1.2.08l2.288-1.02,2.4,2.407-1.016,2.3a1.3,1.3,0,0,0,.082,1.205,15.042,15.042,0,0,1,1.818,4.408,1.293,1.293,0,0,0,.792.909l2.333.9V30l-2.334.9a1.29,1.29,0,0,0-.791.909,15.051,15.051,0,0,1-1.82,4.407,1.305,1.305,0,0,0-.08,1.205l1.016,2.3-2.4,2.407-2.287-1.02a1.286,1.286,0,0,0-1.2.081,14.92,14.92,0,0,1-4.388,1.827,1.293,1.293,0,0,0-.906.795l-.9,2.343H19.38l-.9-2.344a1.293,1.293,0,0,0-.9-.795,14.937,14.937,0,0,1-4.388-1.827,1.283,1.283,0,0,0-1.2-.081L9.7,42.125Zm4.2,4.439.925-.413a17.489,17.489,0,0,0,3.883,1.616l.979,2.552a1.288,1.288,0,0,0,1.2.83h5.162a1.266,1.266,0,0,0,.181-.014l2.323,8.815H12.3ZM8.334,61.035a.9.9,0,0,1,.9-.9h20.5a.9.9,0,0,1,.9.9v.9H8.994c-.222,0-.442.011-.66.027ZM71.006,77.409H8.994a6.441,6.441,0,0,1,0-12.881H71.006a6.441,6.441,0,0,1,0,12.881ZM44.329,66.878a1.293,1.293,0,0,1-1.29,1.3H36.962a1.3,1.3,0,0,1,0-2.592h6.077a1.292,1.292,0,0,1,1.29,1.3M65,75.058a1.293,1.293,0,0,1-1.29,1.3H57.632a1.3,1.3,0,0,1,0-2.592h6.077a1.293,1.293,0,0,1,1.29,1.3m-41.34-8.18a1.294,1.294,0,0,1-1.291,1.3H16.291a1.3,1.3,0,0,1,0-2.592h6.077a1.293,1.293,0,0,1,1.291,1.3m41.34,0a1.293,1.293,0,0,1-1.29,1.3H57.632a1.3,1.3,0,0,1,0-2.592h6.077a1.293,1.293,0,0,1,1.29,1.3m-20.671,8.18a1.293,1.293,0,0,1-1.29,1.3H36.962a1.3,1.3,0,0,1,0-2.592h6.077a1.293,1.293,0,0,1,1.29,1.3m-20.67,0a1.294,1.294,0,0,1-1.291,1.3H16.291a1.3,1.3,0,0,1,0-2.592h6.077a1.294,1.294,0,0,1,1.291,1.3M8.994,65.583a5.386,5.386,0,1,0,5.362,5.386,5.38,5.38,0,0,0-5.362-5.386m0,8.18a2.794,2.794,0,1,1,2.782-2.794,2.791,2.791,0,0,1-2.782,2.794m20.67-8.18a5.386,5.386,0,1,0,5.363,5.386,5.38,5.38,0,0,0-5.363-5.386m0,8.18a2.794,2.794,0,1,1,2.783-2.794,2.792,2.792,0,0,1-2.783,2.794m20.672-8.18A5.386,5.386,0,1,0,55.7,70.968a5.38,5.38,0,0,0-5.362-5.386m0,8.18a2.794,2.794,0,1,1,2.781-2.794,2.791,2.791,0,0,1-2.781,2.794m20.67-8.18a5.386,5.386,0,1,0,5.363,5.386,5.379,5.379,0,0,0-5.363-5.386m0,8.18a2.794,2.794,0,1,1,2.782-2.794,2.792,2.792,0,0,1-2.782,2.794M46.254,6.043a1.774,1.774,0,1,1,1.774,1.782,1.777,1.777,0,0,1-1.774-1.782M21.075,38.632A10.337,10.337,0,1,0,10.782,28.3,10.326,10.326,0,0,0,21.075,38.632m0-18.082A7.745,7.745,0,1,1,13.363,28.3a7.737,7.737,0,0,1,7.711-7.745" transform="translate(-4.774 -4.753)" fill="#fff"/>
  </g>
</svg>
