<svg xmlns="http://www.w3.org/2000/svg" width="47" height="60" viewBox="0 0 47 60">
  <g id="Odoo_ERP_Support" data-name="Odoo ERP Support" transform="translate(-55.77)">
    <g id="Group_70026" data-name="Group 70026" transform="translate(55.77 0)">
      <g id="Group_70025" data-name="Group 70025">
        <path id="Path_77871" data-name="Path 77871" d="M97.436,37.685,95.664,37V35.28a2.671,2.671,0,0,0-2.67-2.666H85.037V29.84a9.547,9.547,0,0,0,2.316-2.553h.226a4.044,4.044,0,0,0,4.042-4.036V21.284a5.345,5.345,0,0,0,3.889-2.829.88.88,0,0,0-1.564-.806,3.6,3.6,0,0,1-2.325,1.845V12.508a3.6,3.6,0,0,1,2.325,1.844.88.88,0,0,0,1.564-.806A5.346,5.346,0,0,0,91.544,10.7,12.023,12.023,0,0,0,79.585,0h-.851A12.023,12.023,0,0,0,66.775,10.7a5.357,5.357,0,0,0,.033,10.6,1.638,1.638,0,0,0,1.526,1.047h1.218a9.377,9.377,0,0,0,3.937,7.638v2.626H65.546a2.671,2.671,0,0,0-2.67,2.666V37l-1.756.68-.017.007a9.009,9.009,0,0,0-5.334,8.228v12.1A2,2,0,0,0,57.764,60H77.106a.879.879,0,1,0,0-1.758H64.025a.514.514,0,0,1-.507-.506v-1.87a.514.514,0,0,1,.507-.506h30.49a.514.514,0,0,1,.507.506v1.87a.514.514,0,0,1-.507.506h-13.3a.879.879,0,1,0,0,1.758h19.572a1.985,1.985,0,0,0,1.984-1.981v-12.1A9.009,9.009,0,0,0,97.436,37.685ZM66.7,19.492a3.6,3.6,0,0,1,0-6.983Zm-4.94,36.373v1.87a2.382,2.382,0,0,0,.057.506h-4.05a.234.234,0,0,1-.234-.233v-12.1a7.255,7.255,0,0,1,4.237-6.6l1.109-.429V52.693a2.682,2.682,0,0,0,.238,1.1A2.278,2.278,0,0,0,61.757,55.865Zm28.1-32.614a2.282,2.282,0,0,1-1.622,2.18,9.41,9.41,0,0,0,.528-3.082h1.094Zm0-2.659H88.768V11.409h1.094Zm-20.31,0H68.458V11.409h1.093Zm.124-10.941h-.937a10.35,10.35,0,0,1,10-7.893h.851a10.351,10.351,0,0,1,10,7.893h-.937a1.637,1.637,0,0,0-1.637,1.634v.929c-.377-.4-.848-.9-1.436-1.534h0a1.676,1.676,0,0,0-2.146-.261,20,20,0,0,1-12.072,3.244h0l-.04,0c0-2.579,0-2.424-.008-2.542A1.638,1.638,0,0,0,69.676,9.651Zm1.637,12.668v-6.9A21.8,21.8,0,0,0,84.33,11.929l.27.289c1.41,1.51,2.19,2.32,2.408,2.6v7.5a7.654,7.654,0,0,1-.7,3.21H82.382A2.319,2.319,0,0,0,80.241,24.1H79.13a2.312,2.312,0,1,0,0,4.624h1.11a2.319,2.319,0,0,0,2.141-1.433h2.8a7.893,7.893,0,0,1-13.872-4.968ZM80.8,26.408a.555.555,0,0,1-.555.554H79.13a.554.554,0,1,1,0-1.109h1.111A.555.555,0,0,1,80.8,26.408Zm2.48,4.5v1.706H75.25V30.979a10.353,10.353,0,0,0,4.5.8A9.43,9.43,0,0,0,83.276,30.907ZM93.9,52.692a.91.91,0,0,1-.91.908H65.546a.91.91,0,0,1-.91-.908V35.28h0a.91.91,0,0,1,.91-.908H92.994a.91.91,0,0,1,.91.908C93.9,36.135,93.9,52.166,93.9,52.692Zm6.882,5.55h-4.06a2.386,2.386,0,0,0,.057-.506v-1.87a2.279,2.279,0,0,0-1.356-2.073,2.679,2.679,0,0,0,.238-1.1V38.885l1.108.428a7.255,7.255,0,0,1,4.238,6.6v12.1h0A.224.224,0,0,1,100.786,58.242Z" transform="translate(-55.77 0)" fill="#ff6420"/>
      </g>
    </g>
    <g id="Group_70028" data-name="Group 70028" transform="translate(75.955 41.74)">
      <g id="Group_70027" data-name="Group 70027">
        <path id="Path_77872" data-name="Path 77872" d="M230.96,356.182a3.2,3.2,0,1,0,3.2,3.2A3.206,3.206,0,0,0,230.96,356.182Zm0,4.641a1.442,1.442,0,1,1,1.444-1.442A1.445,1.445,0,0,1,230.96,360.823Z" transform="translate(-227.755 -356.182)" fill="#ff6420"/>
      </g>
    </g>
  </g>
</svg>
