<svg xmlns="http://www.w3.org/2000/svg" width="54" height="60" viewBox="0 0 54 60">
  <path id="Odoo_ERP_Consulting" data-name="Odoo ERP Consulting" d="M78.045,21.407a6.271,6.271,0,0,0,1.669-4.263A6.358,6.358,0,1,0,71.927,23.3l-.087.087L65.459,29.73H58a3.106,3.106,0,0,0-3.112,3.094,3.054,3.054,0,0,0,.252,1.219H52.384a3.07,3.07,0,0,0,.252-1.219,3.107,3.107,0,0,0-3.112-3.094H42.061L35.68,23.387l-.086-.086a6.348,6.348,0,1,0-6.118-1.893,4.265,4.265,0,0,0-2.716,3.962V42.544A3.473,3.473,0,0,0,30.24,46h8.472v10.54a3.48,3.48,0,0,0,6.959,0v-14a3.414,3.414,0,0,0-.388-1.583H52.82v14.3H51.232a2.377,2.377,0,0,0-2.383,2.366v1.431a.94.94,0,0,0,.942.937h7.944a.94.94,0,0,0,.942-.937V57.629a2.378,2.378,0,0,0-2.383-2.366H54.7v-14.3h7.533a3.418,3.418,0,0,0-.388,1.583v14a3.48,3.48,0,0,0,6.959,0V46H77.28a3.473,3.473,0,0,0,3.48-3.458V25.369a4.261,4.261,0,0,0-2.715-3.962ZM56.792,57.629v.495H50.733v-.495a.5.5,0,0,1,.5-.491h5.061A.5.5,0,0,1,56.792,57.629ZM68.883,17.144a4.474,4.474,0,1,1,4.474,4.444A4.464,4.464,0,0,1,68.883,17.144ZM56.771,32.822A1.224,1.224,0,0,1,58,31.6h7.853a.943.943,0,0,0,.666-.274l6.658-6.617a4.413,4.413,0,0,1,3.3-1.727,2.4,2.4,0,0,1,2.4,2.385V39.085h-6.3V31.406L74.8,29.192a.933.933,0,0,0,0-1.325.945.945,0,0,0-1.332,0L67.7,33.6a1.428,1.428,0,0,1-1.073.441H58a1.226,1.226,0,0,1-1.229-1.22Zm10.8,6.261v-3.3a3.335,3.335,0,0,0,1.465-.864l1.658-1.648v5.807Zm-30.736,0V33.277l1.656,1.645a3.326,3.326,0,0,0,1.468.866v3.3Zm5.008-3.168H65.685v3.168H41.841ZM34.168,12.7a4.444,4.444,0,1,1-4.474,4.444A4.465,4.465,0,0,1,34.168,12.7ZM31.049,22.985a4.412,4.412,0,0,1,3.3,1.727l6.658,6.619a.943.943,0,0,0,.666.274h7.853a1.219,1.219,0,1,1,0,2.437H40.9a1.433,1.433,0,0,1-1.075-.443l-5.771-5.734a.945.945,0,0,0-1.332,0,.933.933,0,0,0,0,1.325l2.227,2.214v7.679h-6.3V25.369a2.4,2.4,0,0,1,2.4-2.385ZM43.79,42.543v14a1.595,1.595,0,0,1-3.19,0V45.064a.94.94,0,0,0-.942-.937H30.243a1.591,1.591,0,0,1-1.595-1.583V40.96H42.2A1.589,1.589,0,0,1,43.79,42.543Zm35.086,0a1.591,1.591,0,0,1-1.595,1.583H67.868a.94.94,0,0,0-.942.937V56.541a1.595,1.595,0,0,1-3.19,0v-14a1.591,1.591,0,0,1,1.595-1.583H78.878v1.583Zm-35.06-25.56h.618V19.3a.942.942,0,0,0,.942.937.947.947,0,0,0,.59-.206l3.823-3.053h4.72a2.6,2.6,0,0,0,2.6-2.589v-.75h.618L61.557,16.7a.943.943,0,0,0,1.532-.731V13.644h.622a2.6,2.6,0,0,0,2.6-2.585V2.589A2.6,2.6,0,0,0,63.711,0h-10.7a2.6,2.6,0,0,0-2.6,2.589v.75H43.816a2.6,2.6,0,0,0-2.6,2.589v8.467A2.6,2.6,0,0,0,43.816,16.982ZM52.295,2.589a.727.727,0,0,1,.72-.714h10.7a.725.725,0,0,1,.716.714v8.47a.714.714,0,0,1-.716.71H62.148a.94.94,0,0,0-.942.937v1.3l-2.55-2.036a.946.946,0,0,0-.59-.206h-.949V5.927a2.6,2.6,0,0,0-2.6-2.589H52.295ZM43.1,5.927a.717.717,0,0,1,.72-.714H54.512a.717.717,0,0,1,.72.714v8.467a.727.727,0,0,1-.72.714H49.459a.946.946,0,0,0-.59.206l-2.55,2.036v-1.3a.94.94,0,0,0-.942-.937H43.816a.717.717,0,0,1-.72-.714V5.927Zm1.615,5.746a.94.94,0,0,1,.942-.937h7.017a.937.937,0,1,1,0,1.875H45.655A.94.94,0,0,1,44.712,11.673ZM47.1,8.647a.94.94,0,0,1,.942-.937h4.627a.937.937,0,1,1,0,1.875H48.046A.94.94,0,0,1,47.1,8.647Zm-2.39,0a.94.94,0,0,1,.942-.937h0a.938.938,0,1,1-.944.937Z" transform="translate(-26.76)" fill="#ff6420"/>
</svg>
