<svg xmlns="http://www.w3.org/2000/svg" width="81" height="80.997" viewBox="0 0 81 80.997">
  <g id="Education" transform="translate(0.6 -0.284)">
    <path id="Path_77878" data-name="Path 77878" d="M40,38.324c-9.552,0-19.835-1.579-19.835-5.047V24.662l-18.6-6.643a2.359,2.359,0,0,1,0-4.437L39.19.139a2.435,2.435,0,0,1,1.615,0L78.432,13.582a2.357,2.357,0,0,1,.006,4.437l-7.076,2.529.173.336a3.674,3.674,0,0,1,.4,1.641v4.03a2.361,2.361,0,0,1-2.358,2.359h-2.69a2.361,2.361,0,0,1-2.358-2.359V23l-4.694,1.667v8.615c0,3.468-10.281,5.047-19.835,5.047m0-8.067c-9.883,0-16.335,1.655-17.584,2.774l-.276.246.276.246C23.667,34.641,30.12,36.3,40,36.3s16.334-1.655,17.584-2.773l.274-.246-.274-.246c-1.25-1.119-7.7-2.774-17.584-2.774M40,15.47c-10.54,0-16.815,1.751-17.737,2.934l-.036.046-.035.1V30.832l.468-.212c5.1-2.323,16.1-2.39,17.339-2.39s12.237.067,17.34,2.39l.468.212V18.494l-.036-.047C56.818,17.221,50.542,15.47,40,15.47m28.232,5.377a1.678,1.678,0,0,0-1.676,1.675v4.364h3.35V22.522a1.677,1.677,0,0,0-1.674-1.675M40,13.443c9.553,0,19.835,1.579,19.835,5.047v4.02l5.212-1.859.03-.048A3.778,3.778,0,0,1,67,19.048l.22-.077V11.725l-27.2-9.719L1.378,15.8l18.789,6.709V18.489c0-3.468,10.282-5.047,19.835-5.047m29.245,5.709,9.38-3.351-9.38-3.35Z" transform="translate(-0.102 0.783)" fill="#fff" stroke="#fff" stroke-width="1"/>
    <path id="Path_77879" data-name="Path 77879" d="M46.186,87.6a2.347,2.347,0,0,1-2.208-1.49l-2.633-6.3L38.7,86.13a2.364,2.364,0,0,1-4.361.046l-.578-1.328-1.33.569a2.347,2.347,0,0,1-3.116-3.025l2.819-6.76-.51.014A211.344,211.344,0,0,0,3.892,78.173a1.153,1.153,0,0,1-.2.02c-.375,0-3.7-.405-3.7-14.457S3.323,49.28,3.7,49.28a1.151,1.151,0,0,1,.186.016,226.085,226.085,0,0,0,34.635,2.676q.74,0,1.479,0c.487,0,1.473,0,1.474,0A226.117,226.117,0,0,0,76.107,49.3a1.036,1.036,0,0,1,.184-.017c.38,0,3.709.405,3.709,14.456s-3.323,14.457-3.7,14.457a1.224,1.224,0,0,1-.181-.012,205.891,205.891,0,0,0-25.009-2.424l-.514-.019,2.771,6.647a2.349,2.349,0,0,1-3.122,3.038l-1.318-.566-.582,1.332A2.333,2.333,0,0,1,46.2,87.6ZM34.3,82.511a1.013,1.013,0,0,1,.93.609l1.29,2.969,3.348-8L39.477,78A9.047,9.047,0,0,1,34.9,75.5l-.349-.353-3.663,8.781L33.9,82.591a1,1,0,0,1,.395-.08m13.5-7.016A9.049,9.049,0,0,1,43.212,78l-.391.082,3.331,7.977,1.307-2.936a1.016,1.016,0,0,1,1.33-.53L51.8,83.88l-3.652-8.739ZM3.384,52.222A37.95,37.95,0,0,0,2.029,63.749a37.879,37.879,0,0,0,1.356,11.5L3.7,76.4l.319-1.15A37.973,37.973,0,0,0,5.377,63.725a37.86,37.86,0,0,0-1.356-11.5L3.7,51.072Zm37.96,9.84A7.052,7.052,0,1,0,48.4,69.115a7.06,7.06,0,0,0-7.053-7.053M75.979,51.376A224.925,224.925,0,0,1,47.072,53.9l-.4.009.089.395a37.049,37.049,0,0,1,.952,8.21v.068l.049.115a9.072,9.072,0,0,1,1.794,10.275l-.032.068,0,.134.2.5.214.006A218.283,218.283,0,0,1,75.979,76.1l.224.034.112-.194c.641-1.1,1.658-5.386,1.658-12.2,0-6.835-1.018-11.112-1.66-12.2l-.112-.193ZM6.1,52.187c.863,2.5,1.3,6.386,1.3,11.55s-.437,9.047-1.3,11.548l-.01.241v.142l.315.054a236.986,236.986,0,0,1,26.375-2.137L33,73.58l.2-.477-.032-.068a8.993,8.993,0,0,1,.386-8.561,4.042,4.042,0,0,0,.056-.738A34.93,34.93,0,0,0,32.5,54.123l-.062-.24-.249-.007A236.562,236.562,0,0,1,6.462,51.751l-.534-.073ZM34.668,54.35a36.131,36.131,0,0,1,.915,7.1l.017.619.5-.36a9,9,0,0,1,9.028-.839l.49.229-.02-.541a28.738,28.738,0,0,0-.981-6.362l-.068-.248-.257,0c-1.4.024-2.829.04-4.3.04q-2.564,0-5-.051l-.425-.009Z" transform="translate(-0.1 -6.824)" fill="#fff" stroke="#fff" stroke-width="1"/>
  </g>
</svg>
