<svg xmlns="http://www.w3.org/2000/svg" width="78.332" height="78.2" viewBox="0 0 78.332 78.2">
  <g id="Finance" transform="translate(-0.822 1.042)">
    <path id="Path_77902" data-name="Path 77902" d="M25,34.651h5.952a2.815,2.815,0,0,0,2.812-2.81V29.77a2.815,2.815,0,0,0-2.812-2.81H25a2.813,2.813,0,0,0-2.811,2.81v2.07A2.813,2.813,0,0,0,25,34.651m-.373-4.881A.378.378,0,0,1,25,29.4h5.952a.379.379,0,0,1,.374.373v2.07a.379.379,0,0,1-.374.373H25a.378.378,0,0,1-.373-.373ZM17.871,49.291H11.918A2.815,2.815,0,0,0,9.106,52.1v2.07a2.814,2.814,0,0,0,2.812,2.81h5.953a2.814,2.814,0,0,0,2.812-2.81V52.1a2.815,2.815,0,0,0-2.812-2.811m.373,4.882a.378.378,0,0,1-.373.373H11.918a.379.379,0,0,1-.373-.373V52.1a.379.379,0,0,1,.373-.373h5.953a.378.378,0,0,1,.373.373Zm-.373-16.047H11.918a2.814,2.814,0,0,0-2.812,2.811v2.069a2.815,2.815,0,0,0,2.812,2.811h5.953a2.815,2.815,0,0,0,2.812-2.811V40.937a2.814,2.814,0,0,0-2.812-2.811m.373,4.881a.378.378,0,0,1-.373.373H11.918a.379.379,0,0,1-.373-.373V40.937a.38.38,0,0,1,.373-.374h5.953a.378.378,0,0,1,.373.374Zm15.517,9.1a2.816,2.816,0,0,0-2.812-2.811H25A2.814,2.814,0,0,0,22.185,52.1v2.07A2.813,2.813,0,0,0,25,56.983h5.952a2.815,2.815,0,0,0,2.812-2.81Zm-2.438,2.07a.379.379,0,0,1-.374.373H25a.378.378,0,0,1-.373-.373V52.1A.378.378,0,0,1,25,51.729h5.952a.379.379,0,0,1,.374.373ZM17.871,26.96H11.918a2.814,2.814,0,0,0-2.812,2.81v2.07a2.814,2.814,0,0,0,2.812,2.81h5.953a2.814,2.814,0,0,0,2.812-2.81V29.77a2.814,2.814,0,0,0-2.812-2.81m.373,4.881a.378.378,0,0,1-.373.373H11.918a.379.379,0,0,1-.373-.373V29.77a.379.379,0,0,1,.373-.373h5.953a.378.378,0,0,1,.373.373ZM25,45.818h5.952a2.816,2.816,0,0,0,2.812-2.811V40.937a2.816,2.816,0,0,0-2.812-2.811H25a2.814,2.814,0,0,0-2.811,2.811v2.069A2.814,2.814,0,0,0,25,45.818m-.373-4.881A.379.379,0,0,1,25,40.562h5.952a.38.38,0,0,1,.374.374v2.069a.379.379,0,0,1-.374.373H25a.378.378,0,0,1-.373-.373Zm50.612,7.394A80.533,80.533,0,0,0,64.628,34.538,4.326,4.326,0,0,0,63.121,26.4l3.04-3.04a4.415,4.415,0,0,0-5.509-6.835.383.383,0,0,1-.392.035.387.387,0,0,1-.253-.3,4.443,4.443,0,0,0-4.062-3.465V8.145A8.155,8.155,0,0,0,47.8,0H8.146A8.154,8.154,0,0,0,0,8.145V58.78a8.155,8.155,0,0,0,8.146,8.145H35.589c.115.212.233.423.358.632C39.78,74.025,47.164,78,55.294,78h.8c8.128,0,15.514-3.976,19.346-10.442C78.923,61.682,78.849,54.674,75.235,48.331ZM64.522,30.7a1.893,1.893,0,0,1-1.891,1.89H48.757a1.891,1.891,0,1,1,0-3.781H62.631A1.893,1.893,0,0,1,64.522,30.7Zm-6.9-13.921a2.862,2.862,0,0,0,4.342,1.8,1.991,1.991,0,0,1,2.468.265,1.986,1.986,0,0,1,0,2.8L59.7,26.372H51.685l-4.735-4.735a1.986,1.986,0,0,1,0-2.8,1.99,1.99,0,0,1,2.468-.265,2.863,2.863,0,0,0,4.343-1.8,1.977,1.977,0,0,1,3.865,0m-13.605,2.6H10.455A.379.379,0,0,1,10.081,19V12.753a.378.378,0,0,1,.373-.373H45.49a.378.378,0,0,1,.373.373V16.6a4.256,4.256,0,0,0-.636.523,4.368,4.368,0,0,0-1.206,2.258M8.146,64.488A5.714,5.714,0,0,1,2.438,58.78V8.145A5.714,5.714,0,0,1,8.146,2.437H47.8a5.714,5.714,0,0,1,5.708,5.708v5.227A4.435,4.435,0,0,0,51.38,16.26a.425.425,0,0,1-.644.266,4.4,4.4,0,0,0-2.435-.691V12.753A2.815,2.815,0,0,0,45.49,9.942H10.455a2.814,2.814,0,0,0-2.811,2.811V19a2.814,2.814,0,0,0,2.811,2.811h33.77a4.391,4.391,0,0,0,1,1.548l3.039,3.04a4.319,4.319,0,0,0-2.5,1.169,2.8,2.8,0,0,0-1.744-.611H38.074a2.813,2.813,0,0,0-2.81,2.811v2.07a2.813,2.813,0,0,0,2.81,2.81h5.952a2.8,2.8,0,0,0,1.864-.711,4.334,4.334,0,0,0,.869.6q-1.708,1.873-3.171,3.587H38.074a2.813,2.813,0,0,0-2.81,2.81v2.07a2.812,2.812,0,0,0,2.452,2.786q-.864,1.308-1.564,2.539a18.993,18.993,0,0,0-1.665,16.157ZM44.4,29.77v2.07a.379.379,0,0,1-.374.373H38.074a.378.378,0,0,1-.373-.373V29.77a.378.378,0,0,1,.373-.373h5.952a.379.379,0,0,1,.374.373m-5,13.609H38.074a.378.378,0,0,1-.373-.373V40.937a.379.379,0,0,1,.373-.374h3.492Q40.4,42.022,39.4,43.38M73.344,66.315c-3.394,5.727-9.979,9.247-17.249,9.247h-.8c-7.271,0-13.855-3.52-17.249-9.247-3.067-5.176-2.987-11.135.227-16.777,2.286-4.015,5.9-8.633,11.35-14.509H61.768c5.451,5.876,9.062,10.5,11.35,14.509,3.214,5.643,3.295,11.6.227,16.777m-11.13-7.229a4.435,4.435,0,0,1-1.038,3.531,6.87,6.87,0,0,1-4.322,2.089v1.236a1.219,1.219,0,1,1-2.437,0V64.688a6.271,6.271,0,0,1-5.363-4.573,1.219,1.219,0,0,1,2.366-.589c.513,2.06,2.538,2.8,4.2,2.819h.047l.157,0a4.974,4.974,0,0,0,3.507-1.322,2.007,2.007,0,0,0,.461-1.642c-.191-1.574-1.529-2.482-4.341-2.943-4.689-.77-5.782-3.166-5.872-5.041a5.354,5.354,0,0,1,4.51-5.411c.107-.025.216-.046.326-.066V44.647a1.219,1.219,0,0,1,2.438,0v1.261a6.223,6.223,0,0,1,4.859,3.8,1.219,1.219,0,0,1-2.247.943,3.916,3.916,0,0,0-3.75-2.413,1.194,1.194,0,0,1-.134,0,4.89,4.89,0,0,0-.953.119,2.96,2.96,0,0,0-2.614,2.917c.028.585.1,2.142,3.832,2.753C57.3,54.269,61.716,54.994,62.213,59.086Z" transform="translate(0.922 -0.942)" fill="#fff" stroke="#fff" stroke-width="0.2"/>
  </g>
</svg>
