<svg xmlns="http://www.w3.org/2000/svg" width="60" height="60.001" viewBox="0 0 60 60.001">
  <g id="Odoo_ERP_Migration" data-name="Odoo ERP Migration" transform="translate(-2 -1.999)">
    <path id="Path_77867" data-name="Path 77867" d="M41,31a4,4,0,1,0,4,4A4,4,0,0,0,41,31Zm0,6a2,2,0,1,1,2-2A2,2,0,0,1,41,37Z" transform="translate(0 0)" fill="#ff6420"/>
    <path id="Path_77868" data-name="Path 77868" d="M56,20H54.92A5.621,5.621,0,0,0,55,19a7.008,7.008,0,0,0-7-7,6.9,6.9,0,0,0-4.11,1.34,10.988,10.988,0,0,0-4.92-2.92A7.01,7.01,0,0,0,32,4a6.9,6.9,0,0,0-4.11,1.34A11,11,0,0,0,9.04,12H8A6,6,0,0,0,8,24H18.35A5.984,5.984,0,0,0,24,32h8.88l-.12.03A1,1,0,0,0,32,33v1H7a2.984,2.984,0,0,0-2.67,1.64A3.065,3.065,0,0,0,4,37V56H3.12a1,1,0,0,0-.98,1.17l.46,2.56a.359.359,0,0,0,.02.11A3.021,3.021,0,0,0,5.5,62h35a3.021,3.021,0,0,0,2.88-2.16.359.359,0,0,0,.02-.11l.46-2.56A1,1,0,0,0,42.88,56H42V44h1a1,1,0,0,0,.97-.76l.17-.67.59.36a1,1,0,0,0,1.22-.15l2.83-2.83a1,1,0,0,0,.15-1.22l-.36-.59.67-.17A1,1,0,0,0,50,37V33a1,1,0,0,0-.76-.97L49.12,32H56a6,6,0,1,0,0-12ZM19.54,22H8a4,4,0,0,1,0-8h2a1,1,0,0,0,1-1A9,9,0,0,1,27.01,7.36a1.021,1.021,0,0,0,.73.37,1,1,0,0,0,.75-.29,4.992,4.992,0,0,1,8.41,2.61c-.3-.03-.6-.05-.9-.05A11.02,11.02,0,0,0,25.04,20H24A6,6,0,0,0,19.54,22ZM6,37a1.064,1.064,0,0,1,.11-.45A.988.988,0,0,1,7,36H32v1a1,1,0,0,0,.76.97l.67.17-.36.59a1,1,0,0,0,.15,1.22l2.83,2.83a1,1,0,0,0,1.22.15l.59-.36.17.67A1,1,0,0,0,39,44h1V56H26a1,1,0,0,0-1,1H21a1,1,0,0,0-1-1H6ZM41.45,59.32a1.014,1.014,0,0,1-.95.68H5.5a1.014,1.014,0,0,1-.95-.68L4.32,58H19a1,1,0,0,0,1,1h6a1,1,0,0,0,1-1H41.68ZM48,36.22l-1.22.3a1.007,1.007,0,0,0-.68.59,1.019,1.019,0,0,0,.06.9l.65,1.08-1.72,1.72-1.08-.65a1.019,1.019,0,0,0-.9-.06,1.007,1.007,0,0,0-.59.68L42.22,42H39.78l-.3-1.22a1.007,1.007,0,0,0-.59-.68,1.019,1.019,0,0,0-.9.06l-1.08.65-1.72-1.72.65-1.08a1.019,1.019,0,0,0,.06-.9,1.007,1.007,0,0,0-.68-.59L34,36.22V33.78l1.22-.3a1.007,1.007,0,0,0,.68-.59,1.019,1.019,0,0,0-.06-.9l-.65-1.08,1.72-1.72,1.08.64a.989.989,0,0,0,.9.07,1.007,1.007,0,0,0,.59-.68l.3-1.22h2.44l.3,1.22a1.007,1.007,0,0,0,.59.68.989.989,0,0,0,.9-.07l1.08-.64,1.72,1.72-.65,1.08a1.019,1.019,0,0,0-.06.9,1.007,1.007,0,0,0,.68.59l1.22.3ZM56,30H48.73l-2.78-2.78a1,1,0,0,0-1.22-.15l-.59.36-.17-.67A1,1,0,0,0,43,26H39a1,1,0,0,0-.97.76l-.17.67-.59-.36a1,1,0,0,0-1.22.15L33.27,30H24a4,4,0,1,1,0-8h2a1,1,0,0,0,1-1,9,9,0,0,1,16.01-5.64,1.021,1.021,0,0,0,.73.37,1,1,0,0,0,.75-.29A5,5,0,0,1,53,19a5.2,5.2,0,0,1-.29,1.67,1.014,1.014,0,0,0,.12.91,1.028,1.028,0,0,0,.82.42H56a4,4,0,1,1,0,8Z" transform="translate(0 0)" fill="#ff6420"/>
    <path id="Path_77869" data-name="Path 77869" d="M55,46a3,3,0,0,1-3,3H44v2h8a5.006,5.006,0,0,0,5-5V34H55Z" transform="translate(0 0)" fill="#ff6420"/>
    <rect id="Rectangle_23744" data-name="Rectangle 23744" width="2" height="2" transform="translate(22 45)" fill="#ff6420"/>
    <rect id="Rectangle_23745" data-name="Rectangle 23745" width="2" height="2" transform="translate(26 45)" fill="#ff6420"/>
    <rect id="Rectangle_23746" data-name="Rectangle 23746" width="2" height="2" transform="translate(18 45)" fill="#ff6420"/>
  </g>
</svg>
