<svg xmlns="http://www.w3.org/2000/svg" width="80.5" height="80.5" viewBox="0 0 80.5 80.5">
  <g id="Tech_Companies" data-name="Tech Companies" transform="translate(0.25 0.25)">
    <path id="Path_78123" data-name="Path 78123" d="M24.47,79.579H3.143A1.143,1.143,0,0,1,2,78.436V20.093A1.143,1.143,0,0,1,3.143,18.95H24.47a1.143,1.143,0,0,1,1.143,1.143V78.436A1.143,1.143,0,0,1,24.47,79.579ZM4.286,77.293H23.327V21.236H4.286Z" transform="translate(-2 0.421)" fill="#fff" stroke="#fff" stroke-width="0.5"/>
    <path id="Path_78124" data-name="Path 78124" d="M73.809,77.49H52.482a1.143,1.143,0,0,1-1.143-1.143V34.716a1.143,1.143,0,0,1,1.143-1.143H73.809a1.143,1.143,0,0,1,1.143,1.143V76.347A1.143,1.143,0,0,1,73.809,77.49ZM53.625,75.2H72.666V35.859H53.625Z" transform="translate(5.048 2.51)" fill="#fff" stroke="#fff" stroke-width="0.5"/>
    <path id="Path_78125" data-name="Path 78125" d="M56.864,82H21.8a1.143,1.143,0,0,1-1.143-1.143V3.143A1.143,1.143,0,0,1,21.8,2H56.864a1.143,1.143,0,0,1,1.143,1.143V80.857A1.143,1.143,0,0,1,56.864,82ZM22.947,79.714H55.722V4.286H22.947Z" transform="translate(0.666 -2)" fill="#fff" stroke="#fff" stroke-width="0.5"/>
    <path id="Path_78126" data-name="Path 78126" d="M47.106,75.663H29.392a1.143,1.143,0,0,1-1.143-1.143V47.5a1.143,1.143,0,0,1,1.143-1.143H47.106A1.143,1.143,0,0,1,48.249,47.5V74.52A1.143,1.143,0,0,1,47.106,75.663ZM30.535,73.378H45.963V48.643H30.535Z" transform="translate(1.75 4.337)" fill="#fff" stroke="#fff" stroke-width="0.5"/>
    <path id="Path_78127" data-name="Path 78127" d="M16.548,37.75H9.307a1.143,1.143,0,0,1-1.143-1.143V29.368a1.143,1.143,0,0,1,1.143-1.143h7.241a1.143,1.143,0,0,1,1.143,1.143v7.239A1.143,1.143,0,0,1,16.548,37.75Zm-6.095-2.286h4.952V30.511H10.45Z" transform="translate(-1.119 1.746)" fill="#fff" stroke="#fff" stroke-width="0.5"/>
    <path id="Path_78128" data-name="Path 78128" d="M16.548,50.832H9.307A1.143,1.143,0,0,1,8.164,49.69V42.452a1.143,1.143,0,0,1,1.143-1.143h7.241a1.143,1.143,0,0,1,1.143,1.143V49.69A1.143,1.143,0,0,1,16.548,50.832Zm-6.095-2.286h4.952V43.595H10.45Z" transform="translate(-1.119 3.616)" fill="#fff" stroke="#fff" stroke-width="0.5"/>
    <path id="Path_78129" data-name="Path 78129" d="M16.548,63.915H9.307a1.143,1.143,0,0,1-1.143-1.143V55.535a1.143,1.143,0,0,1,1.143-1.143h7.241a1.143,1.143,0,0,1,1.143,1.143v7.238A1.143,1.143,0,0,1,16.548,63.915ZM10.453,61.63h4.952V56.678H10.45Z" transform="translate(-1.119 5.485)" fill="#fff" stroke="#fff" stroke-width="0.5"/>
    <path id="Path_78130" data-name="Path 78130" d="M65.884,50.832H58.643A1.143,1.143,0,0,1,57.5,49.69V42.452a1.143,1.143,0,0,1,1.143-1.143h7.238a1.143,1.143,0,0,1,1.143,1.143V49.69A1.143,1.143,0,0,1,65.884,50.832Zm-6.095-2.286h4.952V43.595H59.786Z" transform="translate(5.929 3.616)" fill="#fff" stroke="#fff" stroke-width="0.5"/>
    <path id="Path_78131" data-name="Path 78131" d="M65.884,63.915H58.643A1.143,1.143,0,0,1,57.5,62.773V55.535a1.143,1.143,0,0,1,1.143-1.143h7.238a1.143,1.143,0,0,1,1.143,1.143v7.238A1.143,1.143,0,0,1,65.884,63.915ZM59.789,61.63h4.952V56.678H59.786Z" transform="translate(5.929 5.485)" fill="#fff" stroke="#fff" stroke-width="0.5"/>
    <path id="Path_78132" data-name="Path 78132" d="M34.648,17.161h-7.24a1.143,1.143,0,0,1-1.143-1.143V8.781a1.143,1.143,0,0,1,1.143-1.143h7.24a1.143,1.143,0,0,1,1.143,1.143v7.238A1.143,1.143,0,0,1,34.648,17.161Zm-6.095-2.286H33.5V9.924H28.551Z" transform="translate(1.466 -1.195)" fill="#fff" stroke="#fff" stroke-width="0.5"/>
    <path id="Path_78133" data-name="Path 78133" d="M34.648,30.246h-7.24A1.143,1.143,0,0,1,26.265,29.1V21.864a1.143,1.143,0,0,1,1.143-1.143h7.24a1.143,1.143,0,0,1,1.143,1.143V29.1A1.143,1.143,0,0,1,34.648,30.246ZM28.553,27.96H33.5V23.007H28.551Z" transform="translate(1.466 0.674)" fill="#fff" stroke="#fff" stroke-width="0.5"/>
    <path id="Path_78134" data-name="Path 78134" d="M34.648,43.328h-7.24a1.143,1.143,0,0,1-1.143-1.143V34.948A1.143,1.143,0,0,1,27.408,33.8h7.24a1.143,1.143,0,0,1,1.143,1.143v7.238A1.143,1.143,0,0,1,34.648,43.328Zm-6.095-2.286H33.5V36.091H28.551Z" transform="translate(1.466 2.544)" fill="#fff" stroke="#fff" stroke-width="0.5"/>
    <path id="Path_78135" data-name="Path 78135" d="M47.783,17.161h-7.24A1.143,1.143,0,0,1,39.4,16.019V8.781a1.143,1.143,0,0,1,1.143-1.143h7.238a1.143,1.143,0,0,1,1.143,1.143v7.238A1.143,1.143,0,0,1,47.783,17.161Zm-6.095-2.286H46.64V9.924H41.686Z" transform="translate(3.343 -1.195)" fill="#fff" stroke="#fff" stroke-width="0.5"/>
    <path id="Path_78136" data-name="Path 78136" d="M47.783,30.246h-7.24A1.143,1.143,0,0,1,39.4,29.1V21.864a1.143,1.143,0,0,1,1.143-1.143h7.238a1.143,1.143,0,0,1,1.143,1.143V29.1A1.143,1.143,0,0,1,47.783,30.246ZM41.688,27.96H46.64V23.007H41.686Z" transform="translate(3.343 0.674)" fill="#fff" stroke="#fff" stroke-width="0.5"/>
    <path id="Path_78137" data-name="Path 78137" d="M47.783,43.328h-7.24A1.143,1.143,0,0,1,39.4,42.186V34.948A1.143,1.143,0,0,1,40.543,33.8h7.238a1.143,1.143,0,0,1,1.143,1.143v7.238A1.143,1.143,0,0,1,47.783,43.328Zm-6.095-2.286H46.64V36.091H41.686Z" transform="translate(3.343 2.544)" fill="#fff" stroke="#fff" stroke-width="0.5"/>
  </g>
</svg>
