<svg xmlns="http://www.w3.org/2000/svg" width="82.51" height="80.501" viewBox="0 0 82.51 80.501">
  <g id="Travel" transform="translate(0.257 0.251)">
    <path id="Path_78138" data-name="Path 78138" d="M80.01,58.188a1.63,1.63,0,0,0-.162-.026,1.6,1.6,0,0,0-1.739,1.264A31.551,31.551,0,0,1,62.186,80.537l-6.119-6.149a2.848,2.848,0,0,1-.835-2.022V67.525a2.848,2.848,0,0,1,.835-2.022L65.1,56.429a9.858,9.858,0,0,0,2.886-7V43.275a6.281,6.281,0,0,0-6.209-6.238,2.051,2.051,0,0,1-2.044-2.053v-1.94a2.051,2.051,0,0,1,2.044-2.055h8.141A31.517,31.517,0,0,1,78.05,46.031a1.6,1.6,0,0,0,1.911,1.221,1.723,1.723,0,0,0,1.215-1.92A34.722,34.722,0,0,0,49.138,18.384a9.152,9.152,0,0,0,.779-4l-.093-2.848A4.2,4.2,0,0,0,45.78,7.475l-2.835-.093a9.048,9.048,0,0,0-6.893,2.849l-.027.03-4.982,5.567L11.35,8.675a1.6,1.6,0,0,0-1.677.375L5.779,12.962A1.613,1.613,0,0,0,6,15.42L21.631,26.342l-8.918,9.964a2.879,2.879,0,0,1-2.653.924l-3.919-.679a1.6,1.6,0,0,0-1.4.448L.469,41.286a1.612,1.612,0,0,0,.557,2.639l9.034,3.5,3.394,8.854a34.8,34.8,0,0,0,34.189,31.1,34.711,34.711,0,0,0,33.6-27.28A1.609,1.609,0,0,0,80.01,58.188ZM38.906,28.7l5.775,16.939-1.818,1.827L33.48,33.6ZM9.4,13.877l1.82-1.828L28.731,18.41l-4.941,5.521Zm2.477,30.8-7.4-2.862,1.939-1.948,3.1.538A6.059,6.059,0,0,0,15.1,38.458l23.3-26.03A5.864,5.864,0,0,1,42.84,10.6l2.835.093a.985.985,0,0,1,.948.953l.093,2.848a5.917,5.917,0,0,1-1.822,4.468l-25.911,23.4a6.181,6.181,0,0,0-1.935,5.6l.535,3.115L15.644,53.03,12.794,45.6a1.605,1.605,0,0,0-.919-.923Zm23.894,29V81.8A31.378,31.378,0,0,1,20.106,67.511l3.888-3.9a.865.865,0,0,1,.619-.257H33.3a4.047,4.047,0,0,0,2.888-1.2l1.551-1.557a.887.887,0,0,1,1.244,0l3.442,3.457a.886.886,0,0,1,0,1.25l-5.453,5.477A4.084,4.084,0,0,0,35.769,73.676Zm3.2,9.252V73.676a.881.881,0,0,1,.258-.626l5.453-5.477a4.233,4.233,0,0,0,0-5.8l-3.442-3.457a4.107,4.107,0,0,0-5.774,0l-1.551,1.557a.873.873,0,0,1-.623.259H24.613a4.037,4.037,0,0,0-2.886,1.2L18.675,64.4A31.244,31.244,0,0,1,16.7,56.519l3.734-3.751a1.613,1.613,0,0,0,.446-1.411L20.2,47.419a2.94,2.94,0,0,1,.919-2.664l9.951-8.988L41.3,50.881a1.614,1.614,0,0,0,2.457.233L47.652,47.2a1.614,1.614,0,0,0,.383-1.659l-6.54-19.185,5.291-4.778c.282-.008.569-.012.858-.012a31.137,31.137,0,0,1,18.618,6.2H61.776a5.266,5.266,0,0,0-5.247,5.272v1.94a5.265,5.265,0,0,0,5.247,5.271,3.04,3.04,0,0,1,3.006,3.02v6.154a6.654,6.654,0,0,1-1.948,4.725L53.8,63.227a6.052,6.052,0,0,0-1.773,4.3v4.841a6.052,6.052,0,0,0,1.772,4.3l5.28,5.305a31.038,31.038,0,0,1-20.109.959Z" transform="translate(0 -7.377)" fill="#fff" stroke="#3188ab" stroke-width="0.5"/>
    <path id="Path_78139" data-name="Path 78139" d="M495.18,281.4a1.6,1.6,0,1,0-1.259,1.892A1.618,1.618,0,0,0,495.18,281.4Z" transform="translate(-413.211 -236.232)" fill="#fff" stroke="#3188ab" stroke-width="0.5"/>
  </g>
</svg>
